<svg width="64" height="64" xmlns="http://www.w3.org/2000/svg" xmlns:xlink="http://www.w3.org/1999/xlink">
  <defs/>
  <g>
    <path stroke="none" fill="#FFFFFF" d="M16 8 L48 8 Q56 8 56 16 L56 48 Q56 56 48 56 L16 56 Q8 56 8 48 L8 16 Q8 8 16 8 M29 42C32 42 35 40 36 39L38 41H45V39H45C44 39 43 39 42 38 L39 35 C40 34 40 33 41 32 41 30 42 30 44 30H44V28H37V29C37 31 37 32 37 33L33 28C36 27 37 26 37 23 37 21 35 19 31 19 27 19 24 20 24 24 24 26 25 27 27 29 24 30 21 31 21 35 21 39 24 42 29 42ZM31 39C28 39 27 38 27 35 27 33 27 32 28 31L34 37C34 38 32 39 31 39ZM31 27C30 26 29 24 29 23 29 22 30 21 31 21 32 21 33 22 33 23 33 25 33 26 31 27"/>
  </g>
</svg>