<svg width="64" height="64" xmlns="http://www.w3.org/2000/svg" xmlns:xlink="http://www.w3.org/1999/xlink">
  <defs/>
  <g>
    <path stroke="none" fill="#FFFFFF" d="M16 8 L48 8 Q56 8 56 16 L56 48 Q56 56 48 56 L16 56 Q8 56 8 48 L8 16 Q8 8 16 8 M 33.85 30 l -4 0 q -0.8 0 -1.4 -0.6 q -0.6 -0.6 -0.6 -1.4 q 0 -0.8 0.55 -1.35 l 0.1 -0.1 q 0.55 -0.55 1.35 -0.55 l 1.15 0 l 0 4 l 2 0 l 0 -4 l 0.9 0 q 0.75 0 1.3 0.55 l 0.1 0.1 q 0.55 0.55 0.55 1.35 l 3.85 -1.5 l -0.15 -0.5 q -0.45 -1.2 -1.45 -2.2 l -0.05 -0.05 q -1.7 -1.7 -4.05 -1.75 l -1 0 l 0 -2 l -2 0 l 0 2 l -1 0 q -2.45 0 -4.2 1.75 l -0.05 0.05 q -1.75 1.75 -1.75 4.2 q 0 2.5 1.75 4.25 q 1.75 1.75 4.25 1.75 l 1 0 l 0 4 l 2 0 l 0 -4 l 1 0 q 0.8 0 1.4 0.6 q 0.6 0.6 0.6 1.4 q 0 0.8 -0.55 1.35 l -0.1 0.1 q -0.55 0.55 -1.35 0.55 l -4.05 0 q -0.75 0 -1.3 -0.55 l -0.1 -0.1 q -0.55 -0.55 -0.55 -1.35 l -3.8 1.55 l 0.15 0.45 q 0.4 1.2 1.4 2.2 l 0.05 0.05 q 1.7 1.7 4.2 1.75 l 1 0 l 0 2 l 2 0 l 0 -2 l 1 0 q 2.45 0 4.2 -1.75 l 0.05 -0.05 q 1.75 -1.75 1.75 -4.2 q 0 -2.5 -1.75 -4.25 q -1.75 -1.75 -4.25 -1.75"/>
  </g>
</svg>