<svg width="64" height="64" xmlns="http://www.w3.org/2000/svg" xmlns:xlink="http://www.w3.org/1999/xlink">
  <defs/>
  <g>
    <path stroke="none" fill="#FFFFFF" d="M16 8 L48 8 Q56 8 56 16 L56 48 Q56 56 48 56 L16 56 Q8 56 8 48 L8 16 Q8 8 16 8 M11 16 L11 48 Q11 53 16 53 L48 53 Q53 53 53 48 L53 16 Q53 11 48 11 L16 11 Q11 11 11 16"/>
    <path stroke="none" fill="#FFFFFF" d="M46.9 31.226C46.9 22.942 40.185 16.225 31.9 16.225c-8.285 0-15 6.717-15 15.001C16.9 39.51 23.615 46.225 31.9 46.225c2.667 0 5.167-.702 7.337-1.924.244-.088.42-.32.42-.594 0-.249-.144-.461-.353-.565l.001-.002-2.612-1.601L36.692 41.541c-.11-.091-.248-.148-.402-.148-.095 0-.184.022-.265.06l-.006-.005C34.746 41.964 33.356 42.249 31.9 42.249c-6.08 0-11.024-4.945-11.024-11.024 0-6.078 4.945-11.025 11.024-11.025 5.729 0 10.448 4.394 10.974 9.987C42.871 34.193 41.124 36.425 39.752 36.425c-.739 0-1.302-.492-1.302-1.583 0-.211.07-.669.106-.844l1.665-7.967-.007 0c.005-.028.017-.054.017-.084 0-.294-.238-.532-.532-.532h-2.892c-.263 0-.471.194-.514.445l-.01 0-.295 1.42c-.739-1.337-2.252-2.357-4.398-2.357-4.081 0-7.951 3.906-7.951 8.62 0 3.412 2.04 5.91 5.453 5.91 1.9 0 3.835-1.091 5.066-2.814l.035.211c.246 1.337 3.937 3.03 6.048 3.03 3.06 0 6.647-2.062 6.647-7.973l-.009-.004C46.891 31.677 46.9 31.453 46.9 31.226zM34.546 33.963c-.774 1.091-2.04 2.322-3.905 2.322-1.794 0-2.885-1.266-2.885-3.095 0-2.569 2.005-5.102 4.82-5.102 1.583 0 2.498 1.02 2.85 1.794L34.546 33.963z"/>
  </g>
</svg>