<svg width="64" height="64" xmlns="http://www.w3.org/2000/svg" xmlns:xlink="http://www.w3.org/1999/xlink">
  <defs/>
  <g>
    <path stroke="none" fill="#FFFFFF" d="M11 16 L11 48 Q11 53 16 53 L48 53 Q53 53 53 48 L53 16 Q53 11 48 11 L16 11 Q11 11 11 16 M16 8 L48 8 Q56 8 56 16 L56 48 Q56 56 48 56 L16 56 Q8 56 8 48 L8 16 Q8 8 16 8 m 11.5858 13.9142 l 1.4142 -1.4142 q 1.4142 -1.4142 2.8284 0 l 4.2426 4.2426 q 1.4142 1.4142 -0 2.8284 l -1.4142 1.4142 q -1.4142 1.4142 -2.8284 -0 l -4.2426 -4.2426 q -1.4142 -1.4142 0 -2.8284"/>
  </g>
</svg>