<svg width="64" height="64" xmlns="http://www.w3.org/2000/svg" xmlns:xlink="http://www.w3.org/1999/xlink">
  <defs/>
  <g>
    <path stroke="none" fill="#FFFFFF" d="M11 16 L11 48 Q11 53 16 53 L48 53 Q53 53 53 48 L53 16 Q53 11 48 11 L16 11 Q11 11 11 16 M16 8 L48 8 Q56 8 56 16 L56 48 Q56 56 48 56 L16 56 Q8 56 8 48 L8 16 Q8 8 16 8"/>
		
    <path stroke="#ffffff" fill="#00000000" stroke-linecap="round" stroke-linejoin="round" stroke-width="3" transform="translate(16, 8)" d="M19 10H18a4 4 0 0 0-4 4v4c0 2-1.2 6-6 6 2 0 6 1.2 6 6v4a4 4 0 0 0 4 4h1"></path>
  </g>
</svg>