<svg width="64" height="64" xmlns="http://www.w3.org/2000/svg" xmlns:xlink="http://www.w3.org/1999/xlink">
  <defs/>
  <g>
    <path stroke="none" fill="#FFFFFF" d="M11 16 L11 48 Q11 53 16 53 L48 53 Q53 53 53 48 L53 16 Q53 11 48 11 L16 11 Q11 11 11 16 M16 8 L48 8 Q56 8 56 16 L56 48 Q56 56 48 56 L16 56 Q8 56 8 48 L8 16 Q8 8 16 8 M 31 16 l -3 0 q -2 0 -2 2 q 0 2 2 2 q 4 0 4 4 l 0 3 q 0 4 4 4 q -4 0 -4 4 l 0 4 q 0 4 -4 4 q -2 0 -2 2 q 0 2 2 2 l 3 0 q 5 0 5 -5 l 0 -5 q 0 -4 4 -4 q 2 0 2 -2 q 0 -2 -2 -2 q -4 0 -4 -4 l 0 -4 q 0 -5 -5 -5 z"/>
  </g>
</svg>