<svg width="64" height="64" xmlns="http://www.w3.org/2000/svg" xmlns:xlink="http://www.w3.org/1999/xlink">
  <defs/>
  <g>
    <path stroke="none" fill="#FFFFFF" d="M16 8 L48 8 Q56 8 56 16 L56 48 Q56 56 48 56 L16 56 Q8 56 8 48 L8 16 Q8 8 16 8 M11 16 L11 48 Q11 53 16 53 L48 53 Q53 53 53 48 L53 16 Q53 11 48 11 L16 11 Q11 11 11 16" />
		<path stroke="#ffffff" fill="#00000000" stroke-width="4" stroke-linecap="round" transform="translate(20, 8)" d="M11.509 14C9.313 16.739 8 20.216 8 24 8 27.784 9.313 31.261 11.509 34" />
  </g>
</svg>