<svg width="64" height="64" xmlns="http://www.w3.org/2000/svg" xmlns:xlink="http://www.w3.org/1999/xlink">
  <defs/>
  <g>
    <path stroke="none" fill="#FFFFFF" d="M 53 16 q 0 -5 -5 -5 l -32 0 q -5 0 -5 5 l 0 32 q 0 5 5 5 l 32 0 q 5 0 5 -5 l 0 -32 m -5 -8 q 8 0 8 8 l 0 32 q 0 8 -8 8 l -32 0 q -8 0 -8 -8 l 0 -32 q 0 -8 8 -8 l 32 0 M 39 26 l 0 -3 l -1 -1 l -3 0 l -10 16 l 0 3 l 1 1 l 3 0 l 10 -16 M 37 36 q -2 0 -2 2 l 0 2 q 0 2 2 2 l 2 0 q 2 0 2 -2 l 0 -2 q 0 -2 -2 -2 l -2 0 M 24 22 q -2 0 -2 2 l 0 2 q 0 2 2 2 l 2 0 q 2 0 2 -2 l 0 -2 q 0 -2 -2 -2 l -2 0"/>
  </g>
</svg>