<svg width="64" height="64" xmlns="http://www.w3.org/2000/svg" xmlns:xlink="http://www.w3.org/1999/xlink">
  <defs/>
  <g>
    <path stroke="none" fill="#FFFFFF" d="M11 16 L11 48 Q11 53 16 53 L48 53 Q53 53 53 48 L53 16 Q53 11 48 11 L16 11 Q11 11 11 16 M16 8 L48 8 Q56 8 56 16 L56 48 Q56 56 48 56 L16 56 Q8 56 8 48 L8 16 Q8 8 16 8 M 22 16 l 0 5 l -5 0 q -2 0 -2 2 l 0 2 q 0 2 2 2 l 5 0 l 0 8 l -5 0 q -2 0 -2 2 l 0 2 q 0 2 2 2 l 5 0 l 0 5 q 0 2 2 2 l 2 0 q 2 0 2 -2 l 0 -5 l 8 0 l 0 5 q 0 2 2 2 l 2 0 q 2 0 2 -2 l 0 -5 l 5 0 q 2 0 2 -2 l 0 -2 q 0 -2 -2 -2 l -5 0 l 0 -8 l 5 0 q 2 0 2 -2 l 0 -2 q 0 -2 -2 -2 l -5 0 l 0 -5 q 0 -2 -2 -2 l -2 0 q -2 0 -2 2 l 0 5 l -8 0 l 0 -5 q 0 -2 -2 -2 l -2 0 q -2 0 -2 2 z m 6 11 l 8 0 l 0 8 l -8 0 z"/>
  </g>
</svg>